<svg width="24" height="24" viewBox="0 0 24 24" fill="none" xmlns="http://www.w3.org/2000/svg">
<g clip-path="url(#clip0_16_413)">
<path d="M2 3H22V21H2V3ZM19.5 19.2H20V4.8H4V19.2H4.5C4.5 18.0065 5.02678 16.8619 5.96447 16.018C6.90215 15.1741 8.17392 14.7 9.5 14.7H14.5C15.8261 14.7 17.0979 15.1741 18.0355 16.018C18.9732 16.8619 19.5 18.0065 19.5 19.2ZM12 7.5C11.337 7.5 10.7011 7.73705 10.2322 8.15901C9.76339 8.58097 9.5 9.15326 9.5 9.75C9.5 10.3467 9.76339 10.919 10.2322 11.341C10.7011 11.7629 11.337 12 12 12C12.663 12 13.2989 11.7629 13.7678 11.341C14.2366 10.919 14.5 10.3467 14.5 9.75C14.5 9.15326 14.2366 8.58097 13.7678 8.15901C13.2989 7.73705 12.663 7.5 12 7.5ZM7.5 9.75C7.5 8.67587 7.97411 7.64574 8.81802 6.88622C9.66193 6.1267 10.8065 5.7 12 5.7C13.1935 5.7 14.3381 6.1267 15.182 6.88622C16.0259 7.64574 16.5 8.67587 16.5 9.75C16.5 10.8241 16.0259 11.8543 15.182 12.6138C14.3381 13.3733 13.1935 13.8 12 13.8C10.8065 13.8 9.66193 13.3733 8.81802 12.6138C7.97411 11.8543 7.5 10.8241 7.5 9.75ZM9.5 16.5C8.70435 16.5 7.94129 16.7845 7.37868 17.2908C6.81607 17.7972 6.5 18.4839 6.5 19.2H17.5C17.5 18.4839 17.1839 17.7972 16.6213 17.2908C16.0587 16.7845 15.2956 16.5 14.5 16.5H9.5Z" fill="white"/>
</g>
<defs>
<clipPath id="clip0_16_413">
<rect width="24" height="24" fill="white"/>
</clipPath>
</defs>
</svg>
